<?xml version="1.0" encoding="UTF-8"?>
<svg width="1800" height="1200" xmlns="http://www.w3.org/2000/svg">
  <rect width="100%" height="100%" fill="#0a0a0a"/>

  <!-- The Nail: 17 Domains, Viewing Angle: 0° -->
  <!-- Generated from Nominative Determinism Research Data -->

  <circle cx="1332.00" cy="504.00" r="70.23" fill="rgb(180, 100, 100)" opacity="0.076"/>
  <circle cx="1332.00" cy="504.00" r="105.35" fill="rgb(180, 100, 100)" opacity="0.038"/>
  <circle cx="1332.00" cy="504.00" r="140.47" fill="rgb(180, 100, 100)" opacity="0.025"/>
  <circle cx="1332.00" cy="504.00" r="35.12" fill="rgb(180, 100, 100)" opacity="0.764" data-domain="Hurricanes" data-violence="naming_natural_chaos"/>
  <circle cx="1008.00" cy="312.00" r="184.56" fill="rgb(170, 160, 140)" opacity="0.078"/>
  <circle cx="1008.00" cy="312.00" r="276.84" fill="rgb(170, 160, 140)" opacity="0.039"/>
  <circle cx="1008.00" cy="312.00" r="369.12" fill="rgb(170, 160, 140)" opacity="0.026"/>
  <circle cx="1008.00" cy="312.00" r="92.28" fill="rgb(170, 160, 140)" opacity="0.781" data-domain="Immigration Patterns" data-violence="geographic_destiny"/>
  <circle cx="1224.00" cy="312.00" r="216.32" fill="rgb(140, 100, 180)" opacity="0.081"/>
  <circle cx="1224.00" cy="312.00" r="324.47" fill="rgb(140, 100, 180)" opacity="0.041"/>
  <circle cx="1224.00" cy="312.00" r="432.63" fill="rgb(140, 100, 180)" opacity="0.027"/>
  <circle cx="1224.00" cy="312.00" r="108.16" fill="rgb(140, 100, 180)" opacity="0.814" data-domain="Mental Health" data-violence="pinning_consciousness"/>
  <circle cx="828.00" cy="312.00" r="216.61" fill="rgb(140, 120, 100)" opacity="0.081"/>
  <circle cx="828.00" cy="312.00" r="324.92" fill="rgb(140, 120, 100)" opacity="0.041"/>
  <circle cx="828.00" cy="312.00" r="433.23" fill="rgb(140, 120, 100)" opacity="0.027"/>
  <circle cx="828.00" cy="312.00" r="108.31" fill="rgb(140, 120, 100)" opacity="0.814" data-domain="Ships" data-violence="fate_inscription"/>
  <circle cx="936.00" cy="696.00" r="51.84" fill="rgb(180, 120, 200)" opacity="0.084"/>
  <circle cx="936.00" cy="696.00" r="77.77" fill="rgb(180, 120, 200)" opacity="0.042"/>
  <circle cx="936.00" cy="696.00" r="103.69" fill="rgb(180, 120, 200)" opacity="0.028"/>
  <circle cx="936.00" cy="696.00" r="25.92" fill="rgb(180, 120, 200)" opacity="0.836" data-domain="Band Members" data-violence="legacy_constraint"/>
  <circle cx="1404.00" cy="504.00" r="87.70" fill="rgb(160, 120, 140)" opacity="0.085"/>
  <circle cx="1404.00" cy="504.00" r="131.56" fill="rgb(160, 120, 140)" opacity="0.043"/>
  <circle cx="1404.00" cy="504.00" r="175.41" fill="rgb(160, 120, 140)" opacity="0.028"/>
  <circle cx="1404.00" cy="504.00" r="43.85" fill="rgb(160, 120, 140)" opacity="0.854" data-domain="Election Politics" data-violence="identity_branding"/>
  <circle cx="1116.00" cy="830.20" r="48.94" fill="rgb(150, 140, 130)" opacity="0.087"/>
  <circle cx="1116.00" cy="830.20" r="73.41" fill="rgb(150, 140, 130)" opacity="0.043"/>
  <circle cx="1116.00" cy="830.20" r="97.88" fill="rgb(150, 140, 130)" opacity="0.029"/>
  <circle cx="1116.00" cy="830.20" r="24.47" fill="rgb(150, 140, 130)" opacity="0.866" data-domain="FEMA Disaster Aid" data-violence="resource_rationing"/>
  <circle cx="1044.00" cy="312.00" r="308.01" fill="rgb(200, 140, 160)" opacity="0.088"/>
  <circle cx="1044.00" cy="312.00" r="462.01" fill="rgb(200, 140, 160)" opacity="0.044"/>
  <circle cx="1044.00" cy="312.00" r="616.01" fill="rgb(200, 140, 160)" opacity="0.029"/>
  <circle cx="1044.00" cy="312.00" r="154.00" fill="rgb(200, 140, 160)" opacity="0.882" data-domain="NBA Players" data-violence="role_fixation"/>
  <circle cx="1548.00" cy="312.00" r="310.36" fill="rgb(160, 120, 140)" opacity="0.088"/>
  <circle cx="1548.00" cy="312.00" r="465.54" fill="rgb(160, 120, 140)" opacity="0.044"/>
  <circle cx="1548.00" cy="312.00" r="620.72" fill="rgb(160, 120, 140)" opacity="0.029"/>
  <circle cx="1548.00" cy="312.00" r="155.18" fill="rgb(160, 120, 140)" opacity="0.883" data-domain="America Nomenclature" data-violence="tribal_marking"/>
  <circle cx="1044.00" cy="504.00" r="95.70" fill="rgb(200, 140, 160)" opacity="0.088"/>
  <circle cx="1044.00" cy="504.00" r="143.55" fill="rgb(200, 140, 160)" opacity="0.044"/>
  <circle cx="1044.00" cy="504.00" r="191.40" fill="rgb(200, 140, 160)" opacity="0.029"/>
  <circle cx="1044.00" cy="504.00" r="47.85" fill="rgb(200, 140, 160)" opacity="0.883" data-domain="NFL Players" data-violence="role_imprisonment"/>
  <circle cx="1296.00" cy="312.00" r="343.07" fill="rgb(220, 160, 100)" opacity="0.090"/>
  <circle cx="1296.00" cy="312.00" r="514.61" fill="rgb(220, 160, 100)" opacity="0.045"/>
  <circle cx="1296.00" cy="312.00" r="686.14" fill="rgb(220, 160, 100)" opacity="0.030"/>
  <circle cx="1296.00" cy="312.00" r="171.54" fill="rgb(220, 160, 100)" opacity="0.901" data-domain="Venture Capital" data-violence="capital_selection"/>
  <circle cx="864.00" cy="312.00" r="347.51" fill="rgb(180, 120, 200)" opacity="0.090"/>
  <circle cx="864.00" cy="312.00" r="521.26" fill="rgb(180, 120, 200)" opacity="0.045"/>
  <circle cx="864.00" cy="312.00" r="695.01" fill="rgb(180, 120, 200)" opacity="0.030"/>
  <circle cx="864.00" cy="312.00" r="173.75" fill="rgb(180, 120, 200)" opacity="0.904" data-domain="Rock Bands" data-violence="market_selection"/>
  <circle cx="1188.00" cy="312.00" r="360.00" fill="rgb(220, 160, 100)" opacity="0.092"/>
  <circle cx="1188.00" cy="312.00" r="540.00" fill="rgb(220, 160, 100)" opacity="0.046"/>
  <circle cx="1188.00" cy="312.00" r="720.00" fill="rgb(220, 160, 100)" opacity="0.031"/>
  <circle cx="1188.00" cy="312.00" r="180.00" fill="rgb(220, 160, 100)" opacity="0.920" data-domain="Cryptocurrency" data-violence="market_elimination"/>
  <circle cx="288.00" cy="1044.08" r="48.11" fill="rgb(120, 120, 120)" opacity="0.093"/>
  <circle cx="288.00" cy="1044.08" r="72.16" fill="rgb(120, 120, 120)" opacity="0.046"/>
  <circle cx="288.00" cy="1044.08" r="96.21" fill="rgb(120, 120, 120)" opacity="0.031"/>
  <circle cx="288.00" cy="1044.08" r="24.05" fill="rgb(120, 120, 120)" opacity="0.925" data-domain="Earthquakes" data-violence="failed_naming"/>
  <circle cx="756.00" cy="312.00" r="360.00" fill="rgb(160, 180, 200)" opacity="0.095"/>
  <circle cx="756.00" cy="312.00" r="540.00" fill="rgb(160, 180, 200)" opacity="0.047"/>
  <circle cx="756.00" cy="312.00" r="720.00" fill="rgb(160, 180, 200)" opacity="0.032"/>
  <circle cx="756.00" cy="312.00" r="180.00" fill="rgb(160, 180, 200)" opacity="0.945" data-domain="Academic Citations" data-violence="career_determination"/>
  <circle cx="972.00" cy="504.00" r="119.33" fill="rgb(200, 170, 140)" opacity="0.095"/>
  <circle cx="972.00" cy="504.00" r="179.00" fill="rgb(200, 170, 140)" opacity="0.047"/>
  <circle cx="972.00" cy="504.00" r="238.66" fill="rgb(200, 170, 140)" opacity="0.032"/>
  <circle cx="972.00" cy="504.00" r="59.67" fill="rgb(200, 170, 140)" opacity="0.946" data-domain="Magic The Gathering" data-violence="crystallizing_value"/>
  <circle cx="684.00" cy="312.00" r="360.00" fill="rgb(190, 150, 180)" opacity="0.098"/>
  <circle cx="684.00" cy="312.00" r="540.00" fill="rgb(190, 150, 180)" opacity="0.049"/>
  <circle cx="684.00" cy="312.00" r="720.00" fill="rgb(190, 150, 180)" opacity="0.033"/>
  <circle cx="684.00" cy="312.00" r="180.00" fill="rgb(190, 150, 180)" opacity="0.985" data-domain="Films" data-violence="attention_filtering"/>
</svg>